<svg width="714" height="143" viewBox="0 0 714 143" fill="none" xmlns="http://www.w3.org/2000/svg">
<path d="M11.88 25.04C10.56 26.12 9.18 27.14 7.74 28.1C6.3 29.06 4.62 29.54 2.7 29.54C0.9 29.54 0 27.92 0 24.68C0 18.08 3.06 12.68 9.18 8.47999C15.06 4.15999 22.08 1.99999 30.24 1.99999C38.4 1.99999 44.52 5.35999 48.6 12.08C51.72 17 53.28 22.58 53.28 28.82C53.28 34.94 52.62 40.94 51.3 46.82C49.98 52.58 48.54 58.52 46.98 64.64C45.54 70.76 44.16 77 42.84 83.36C41.52 89.6 40.86 94.76 40.86 98.84C40.86 102.8 41.04 105.44 41.4 106.76C43.08 112.04 47.64 114.68 55.08 114.68C60.72 114.68 66 113.06 70.92 109.82C84.48 100.94 93.12 83.36 96.84 57.08C87.12 56.48 79.62 53.42 74.34 47.9C69.18 42.26 66.6 34.7 66.6 25.22C66.6 18.38 68.82 12.62 73.26 7.94C77.7 3.25999 83.76 0.919992 91.44 0.919992C99.12 0.799994 104.88 3.44 108.72 8.84C112.56 14.24 114.48 21.56 114.48 30.8V34.94C114.48 36.38 114.42 37.76 114.3 39.08C116.34 38.12 118.08 37.16 119.52 36.2C120.96 35.12 122.4 34.58 123.84 34.58C126.24 34.58 127.44 35.6 127.44 37.64C127.44 41.6 126.18 45.08 123.66 48.08C121.26 50.96 117.96 53.18 113.76 54.74C112.56 70.22 110.58 82.04 107.82 90.2C105.18 98.36 102.3 105.14 99.18 110.54C96.18 115.94 92.28 120.68 87.48 124.76C77.4 133.28 64.38 137.54 48.42 137.54C37.74 137.54 29.22 134.9 22.86 129.62C16.62 124.22 13.5 115.76 13.5 104.24C13.5 101.48 15 94.22 18 82.46C21.12 70.58 23.58 60.86 25.38 53.3C27.18 45.62 28.08 39.56 28.08 35.12C28.08 25.4 25.62 20.54 20.7 20.54C19.02 20.54 17.46 21.02 16.02 21.98C14.7 22.94 13.32 23.96 11.88 25.04ZM98.46 38.54C98.7 35.18 98.82 31.76 98.82 28.28C98.82 20.48 97.02 16.58 93.42 16.58C90.9 16.46 89.64 18.44 89.64 22.52C89.64 29.96 92.58 35.3 98.46 38.54ZM196.597 121.7C187.117 132.86 175.717 138.44 162.397 138.44C149.197 138.44 139.297 135.08 132.697 128.36C126.097 121.52 122.857 113.06 122.977 102.98C122.857 88.7 127.357 76.4 136.477 66.08C145.597 55.76 157.537 50.6 172.297 50.6C179.017 50.6 184.417 51.44 188.497 53.12C195.577 56 199.117 58.7 199.117 61.22C199.117 63.14 194.137 64.16 184.177 64.28C174.337 64.28 166.057 67.7 159.337 74.54C152.737 81.26 149.437 89.78 149.437 100.1C149.437 105.5 150.997 110.06 154.117 113.78C157.357 117.38 161.857 119.18 167.617 119.18C173.497 119.18 178.357 117.98 182.197 115.58C173.677 109.82 169.417 101.48 169.417 90.56C169.297 84.8 171.337 79.58 175.537 74.9C179.857 70.1 185.317 67.7 191.917 67.7C198.637 67.58 203.437 69.38 206.317 73.1C209.197 76.82 210.637 81.62 210.637 87.5C210.637 93.26 209.257 99.38 206.497 105.86H207.577C212.857 105.74 217.417 103.88 221.257 100.28C222.697 98.84 223.897 97.58 224.857 96.5C225.937 95.42 227.017 94.88 228.097 94.88C229.777 94.88 230.617 96.86 230.617 100.82C230.617 108.14 228.457 113.66 224.137 117.38C219.817 120.98 215.017 122.78 209.737 122.78C204.577 122.78 200.197 122.42 196.597 121.7ZM194.977 100.82C197.017 96.5 198.037 92.3 198.037 88.22C198.037 84.14 196.717 82.1 194.077 82.1C192.997 82.1 192.097 82.88 191.377 84.44C190.657 86 190.297 87.5 190.297 88.94C190.297 93.74 191.857 97.7 194.977 100.82ZM277.591 61.04C277.591 53 283.831 48.98 296.311 48.98C299.431 48.98 301.351 50 302.071 52.04C302.911 54.08 303.331 57.2 303.331 61.4C303.331 67.28 302.011 76.4 299.371 88.76C296.731 101.12 295.471 109.46 295.591 113.78C295.591 115.82 296.251 116.84 297.571 116.84C299.371 116.84 301.591 115.7 304.231 113.42C306.871 111.14 309.511 108.68 312.151 106.04C314.791 103.28 317.191 100.76 319.351 98.48C321.631 96.2 323.191 95.06 324.031 95.06C325.711 95.06 326.551 97.1 326.551 101.18C326.551 109.58 322.411 117.68 314.131 125.48C300.211 133.64 291.391 137.72 287.671 137.72C287.311 137.72 287.011 137.66 286.771 137.54C282.211 137.54 278.971 136.04 277.051 133.04C275.251 130.04 274.111 126.26 273.631 121.7C271.231 126.14 267.931 129.98 263.731 133.22C259.531 136.34 254.731 137.9 249.331 137.9C239.851 137.9 232.531 136.1 227.371 132.5C222.331 128.9 219.811 123.56 219.811 116.48C219.811 113.36 220.231 110.48 221.071 107.84C222.031 105.2 223.531 101.96 225.571 98.12L230.791 53.84C234.511 50.96 239.851 49.52 246.811 49.52C252.331 49.52 255.451 53.12 256.171 60.32C256.771 66.2 256.471 71.48 255.271 76.16C254.191 80.72 252.691 86.54 250.771 93.62C248.851 100.58 247.891 106.76 247.891 112.16C247.891 116.48 250.591 118.64 255.991 118.64C261.871 118.64 266.971 113.48 271.291 103.16C274.651 95.24 276.931 86.42 278.131 76.7C278.011 75.74 277.891 74.54 277.771 73.1C277.771 71.54 277.711 70.04 277.591 68.6C277.591 67.16 277.591 65.72 277.591 64.28V61.04ZM389.048 94.52C391.208 94.52 392.288 96.38 392.288 100.1C392.288 103.7 391.328 107.6 389.408 111.8C387.608 116 384.788 120.08 380.948 124.04C377.228 127.88 372.428 131.18 366.548 133.94C360.668 136.7 353.708 138.08 345.668 138.08C337.748 138.08 330.788 135.74 324.788 131.06C318.788 126.26 315.788 119.42 315.788 110.54C315.788 101.54 317.168 93.44 319.928 86.24C322.808 78.92 326.528 72.62 331.088 67.34C335.768 62.06 341.048 57.98 346.928 55.1C352.808 52.1 358.388 50.6 363.668 50.6C372.908 50.6 377.528 54.26 377.528 61.58C377.528 65.78 376.628 69.14 374.828 71.66C373.148 74.18 371.408 75.44 369.608 75.44C367.208 75.44 365.108 74.6 363.308 72.92C361.508 71.24 359.528 70.4 357.368 70.4C355.208 70.28 353.108 71.3 351.068 73.46C349.148 75.62 347.528 78.38 346.208 81.74C343.568 88.46 342.248 96.32 342.248 105.32C342.368 109.64 344.348 112.88 348.188 115.04C350.828 116.48 353.948 117.26 357.548 117.38C361.148 117.38 364.568 116.18 367.808 113.78C371.168 111.38 374.228 108.8 376.988 106.04C379.748 103.16 382.148 100.52 384.188 98.12C386.348 95.72 387.968 94.52 389.048 94.52ZM443.27 76.52C443.27 72.2 440.69 70.04 435.53 70.04C430.49 70.04 425.51 74 420.59 81.92C415.67 89.72 412.61 97.7 411.41 105.86C411.65 108.62 411.89 111.38 412.13 114.14C412.37 116.9 412.49 119.6 412.49 122.24C412.49 128.6 410.39 132.92 406.19 135.2C404.27 136.28 402.41 137.3 400.61 138.26C398.93 139.22 396.95 139.7 394.67 139.7C392.39 139.7 390.35 138.2 388.55 135.2C386.87 132.08 386.03 127.28 386.03 120.8C386.03 102.68 387.35 86.96 389.99 73.64C394.07 53 402.17 30.92 414.29 7.39999C415.97 4.15999 418.43 2.59999 421.67 2.71999C424.91 2.71999 427.55 4.93999 429.59 9.37999C431.63 13.82 432.59 17.54 432.47 20.54C432.47 23.54 431.99 26.48 431.03 29.36C430.19 32.12 429.05 34.88 427.61 37.64C426.29 40.28 424.73 43.04 422.93 45.92C421.25 48.68 419.57 51.68 417.89 54.92L415.19 67.88C419.87 60.08 426.17 54.86 434.09 52.22C436.97 51.26 440.15 50.78 443.63 50.78C451.79 50.78 457.97 52.64 462.17 56.36C466.37 59.96 468.47 65.12 468.47 71.84C468.47 78.44 467.57 85.16 465.77 92C464.09 98.84 462.83 103.76 461.99 106.76C461.27 109.64 460.91 112.04 460.91 113.96C460.91 115.88 461.57 116.84 462.89 116.84C464.69 116.84 466.91 115.7 469.55 113.42C472.19 111.14 474.83 108.68 477.47 106.04C480.11 103.28 482.51 100.76 484.67 98.48C486.95 96.2 488.51 95.06 489.35 95.06C491.03 95.06 491.87 97.1 491.87 101.18C491.87 109.58 487.73 117.68 479.45 125.48C465.53 133.64 456.65 137.72 452.81 137.72C452.45 137.72 452.21 137.66 452.09 137.54C442.49 137.54 437.69 129.86 437.69 114.5C437.69 107.9 438.29 101.84 439.49 96.32C440.81 90.8 441.77 86.78 442.37 84.26C442.97 81.74 443.27 79.16 443.27 76.52ZM524.762 117.38C534.122 117.38 543.182 113.66 551.942 106.22C555.182 103.46 557.822 100.94 559.862 98.66C561.902 96.26 563.462 95.06 564.542 95.06C566.222 95.06 567.062 96.74 567.062 100.1C567.062 103.46 566.162 107.24 564.362 111.44C562.562 115.52 559.562 119.54 555.362 123.5C545.042 133.22 530.882 138.08 512.882 138.08C498.602 138.08 488.882 132.92 483.722 122.6C481.922 119 481.022 113.84 481.022 107.12C481.022 100.4 482.342 93.44 484.982 86.24C487.622 78.92 491.102 72.62 495.422 67.34C499.862 62.06 504.962 57.98 510.722 55.1C516.482 52.1 522.602 50.6 529.082 50.6C535.682 50.6 540.722 52.22 544.202 55.46C547.802 58.7 549.602 62.9 549.602 68.06C549.602 73.22 548.282 77.48 545.642 80.84C543.122 84.08 539.822 86.84 535.742 89.12C531.662 91.28 527.102 93.26 522.062 95.06C517.142 96.74 512.282 98.66 507.482 100.82V105.32C507.602 109.64 509.402 112.7 512.882 114.5C516.362 116.3 520.322 117.26 524.762 117.38ZM521.702 66.62C515.462 66.62 511.142 73.88 508.742 88.4C511.262 86.72 513.602 85.22 515.762 83.9C518.042 82.58 520.022 81.32 521.702 80.12C525.302 77.48 527.162 74.48 527.282 71.12C527.282 68.12 525.422 66.62 521.702 66.62ZM599.996 117.38C609.356 117.38 618.416 113.66 627.176 106.22C630.416 103.46 633.056 100.94 635.096 98.66C637.136 96.26 638.696 95.06 639.776 95.06C641.456 95.06 642.296 96.74 642.296 100.1C642.296 103.46 641.396 107.24 639.596 111.44C637.796 115.52 634.796 119.54 630.596 123.5C620.276 133.22 606.116 138.08 588.116 138.08C573.836 138.08 564.116 132.92 558.956 122.6C557.156 119 556.256 113.84 556.256 107.12C556.256 100.4 557.576 93.44 560.216 86.24C562.856 78.92 566.336 72.62 570.656 67.34C575.096 62.06 580.196 57.98 585.956 55.1C591.716 52.1 597.836 50.6 604.316 50.6C610.916 50.6 615.956 52.22 619.436 55.46C623.036 58.7 624.836 62.9 624.836 68.06C624.836 73.22 623.516 77.48 620.876 80.84C618.356 84.08 615.056 86.84 610.976 89.12C606.896 91.28 602.336 93.26 597.296 95.06C592.376 96.74 587.516 98.66 582.716 100.82V105.32C582.836 109.64 584.636 112.7 588.116 114.5C591.596 116.3 595.556 117.26 599.996 117.38ZM596.936 66.62C590.696 66.62 586.376 73.88 583.976 88.4C586.496 86.72 588.836 85.22 590.996 83.9C593.276 82.58 595.256 81.32 596.936 80.12C600.536 77.48 602.396 74.48 602.516 71.12C602.516 68.12 600.656 66.62 596.936 66.62ZM692.871 12.8C694.911 10.76 697.071 9.74 699.351 9.74C703.191 9.74 706.491 11.18 709.251 14.06C712.131 16.82 713.631 19.1 713.751 20.9C713.631 24.14 712.431 27.62 710.151 31.34C707.991 34.94 705.591 38.78 702.951 42.86C700.311 46.82 697.911 51.02 695.751 55.46C693.591 59.78 692.511 63.74 692.511 67.34C692.511 70.82 692.811 74.18 693.411 77.42C694.011 80.54 694.311 83.12 694.311 85.16C694.311 88.76 692.091 91.7 687.651 93.98C683.211 96.14 679.011 97.22 675.051 97.22C671.091 97.22 668.511 96.26 667.311 94.34C666.231 92.3 665.691 89.24 665.691 85.16C665.691 75.2 668.151 62.66 673.071 47.54C678.111 32.3 684.711 20.72 692.871 12.8ZM691.611 120.98C689.211 127.1 685.611 132.2 680.811 136.28C676.011 140.24 670.791 142.22 665.151 142.22C659.511 142.22 656.691 139.16 656.691 133.04C656.691 126.8 658.671 121.22 662.631 116.3C666.711 111.38 670.791 108.92 674.871 108.92C682.071 108.92 687.651 112.94 691.611 120.98Z" fill="#33ACC7"/>
</svg>
