<svg width="191" height="39" viewBox="0 0 191 39" fill="none" xmlns="http://www.w3.org/2000/svg">
  <path d="M3.168 7.144C2.816 7.432 2.448 7.704 2.064 7.96C1.68 8.216 1.232 8.344 0.72 8.344C0.24 8.344 0 7.912 0 7.048C0 5.288 0.816 3.848 2.448 2.728C4.016 1.576 5.888 0.999997 8.064 0.999997C10.24 0.999997 11.872 1.896 12.96 3.688C13.792 5 14.208 6.488 14.208 8.152C14.208 9.784 14.032 11.384 13.68 12.952C13.328 14.488 12.944 16.072 12.528 17.704C12.144 19.336 11.776 21 11.424 22.696C11.072 24.36 10.896 25.736 10.896 26.824C10.896 27.88 10.944 28.584 11.04 28.936C11.488 30.344 12.704 31.048 14.688 31.048C16.192 31.048 17.6 30.616 18.912 29.752C22.528 27.384 24.832 22.696 25.824 15.688C23.232 15.528 21.232 14.712 19.824 13.24C18.448 11.736 17.76 9.72 17.76 7.192C17.76 5.368 18.352 3.832 19.536 2.584C20.72 1.336 22.336 0.711998 24.384 0.711998C26.432 0.679998 27.968 1.384 28.992 2.824C30.016 4.264 30.528 6.216 30.528 8.68V9.784C30.528 10.168 30.512 10.536 30.48 10.888C31.024 10.632 31.488 10.376 31.872 10.12C32.256 9.832 32.64 9.688 33.024 9.688C33.664 9.688 33.984 9.96 33.984 10.504C33.984 11.56 33.648 12.488 32.976 13.288C32.336 14.056 31.456 14.648 30.336 15.064C30.016 19.192 29.488 22.344 28.752 24.52C28.048 26.696 27.28 28.504 26.448 29.944C25.648 31.384 24.608 32.648 23.328 33.736C20.64 36.008 17.168 37.144 12.912 37.144C10.064 37.144 7.792 36.44 6.096 35.032C4.432 33.592 3.6 31.336 3.6 28.264C3.6 27.528 4 25.592 4.8 22.456C5.632 19.288 6.288 16.696 6.768 14.68C7.248 12.632 7.488 11.016 7.488 9.832C7.488 7.24 6.832 5.944 5.52 5.944C5.072 5.944 4.656 6.072 4.272 6.328C3.92 6.584 3.552 6.856 3.168 7.144ZM26.256 10.744C26.32 9.848 26.352 8.936 26.352 8.008C26.352 5.928 25.872 4.888 24.912 4.888C24.24 4.856 23.904 5.384 23.904 6.472C23.904 8.456 24.688 9.88 26.256 10.744ZM52.4258 32.92C49.8978 35.896 46.8578 37.384 43.3058 37.384C39.7858 37.384 37.1458 36.488 35.3858 34.696C33.6258 32.872 32.7618 30.616 32.7938 27.928C32.7618 24.12 33.9618 20.84 36.3938 18.088C38.8258 15.336 42.0098 13.96 45.9458 13.96C47.7378 13.96 49.1778 14.184 50.2658 14.632C52.1538 15.4 53.0978 16.12 53.0978 16.792C53.0978 17.304 51.7698 17.576 49.1138 17.608C46.4898 17.608 44.2818 18.52 42.4898 20.344C40.7298 22.136 39.8498 24.408 39.8498 27.16C39.8498 28.6 40.2658 29.816 41.0978 30.808C41.9618 31.768 43.1618 32.248 44.6978 32.248C46.2658 32.248 47.5618 31.928 48.5858 31.288C46.3138 29.752 45.1778 27.528 45.1778 24.616C45.1458 23.08 45.6898 21.688 46.8098 20.44C47.9618 19.16 49.4178 18.52 51.1778 18.52C52.9698 18.488 54.2498 18.968 55.0178 19.96C55.7858 20.952 56.1698 22.232 56.1698 23.8C56.1698 25.336 55.8018 26.968 55.0658 28.696H55.3538C56.7618 28.664 57.9778 28.168 59.0018 27.208C59.3858 26.824 59.7058 26.488 59.9618 26.2C60.2498 25.912 60.5378 25.768 60.8258 25.768C61.2738 25.768 61.4978 26.296 61.4978 27.352C61.4978 29.304 60.9218 30.776 59.7698 31.768C58.6178 32.728 57.3378 33.208 55.9298 33.208C54.5538 33.208 53.3858 33.112 52.4258 32.92ZM51.9938 27.352C52.5378 26.2 52.8098 25.08 52.8098 23.992C52.8098 22.904 52.4578 22.36 51.7538 22.36C51.4658 22.36 51.2258 22.568 51.0338 22.984C50.8418 23.4 50.7458 23.8 50.7458 24.184C50.7458 25.464 51.1618 26.52 51.9938 27.352ZM74.0243 16.744C74.0243 14.6 75.6883 13.528 79.0163 13.528C79.8483 13.528 80.3603 13.8 80.5523 14.344C80.7763 14.888 80.8883 15.72 80.8883 16.84C80.8883 18.408 80.5363 20.84 79.8323 24.136C79.1283 27.432 78.7923 29.656 78.8243 30.808C78.8243 31.352 79.0003 31.624 79.3523 31.624C79.8323 31.624 80.4243 31.32 81.1283 30.712C81.8323 30.104 82.5363 29.448 83.2403 28.744C83.9443 28.008 84.5843 27.336 85.1603 26.728C85.7683 26.12 86.1843 25.816 86.4083 25.816C86.8563 25.816 87.0803 26.36 87.0803 27.448C87.0803 29.688 85.9763 31.848 83.7683 33.928C80.0563 36.104 77.7043 37.192 76.7123 37.192C76.6163 37.192 76.5363 37.176 76.4723 37.144C75.2563 37.144 74.3923 36.744 73.8803 35.944C73.4003 35.144 73.0963 34.136 72.9683 32.92C72.3283 34.104 71.4483 35.128 70.3282 35.992C69.2083 36.824 67.9283 37.24 66.4883 37.24C63.9603 37.24 62.0083 36.76 60.6323 35.8C59.2883 34.84 58.6163 33.416 58.6163 31.528C58.6163 30.696 58.7283 29.928 58.9523 29.224C59.2083 28.52 59.6083 27.656 60.1523 26.632L61.5443 14.824C62.5363 14.056 63.9603 13.672 65.8163 13.672C67.2883 13.672 68.1203 14.632 68.3123 16.552C68.4723 18.12 68.3923 19.528 68.0723 20.776C67.7843 21.992 67.3843 23.544 66.8723 25.432C66.3603 27.288 66.1043 28.936 66.1043 30.376C66.1043 31.528 66.8243 32.104 68.2643 32.104C69.8323 32.104 71.1923 30.728 72.3443 27.976C73.2403 25.864 73.8483 23.512 74.1683 20.92C74.1363 20.664 74.1043 20.344 74.0723 19.96C74.0723 19.544 74.0563 19.144 74.0243 18.76C74.0243 18.376 74.0243 17.992 74.0243 17.608V16.744ZM103.746 25.672C104.322 25.672 104.61 26.168 104.61 27.16C104.61 28.12 104.354 29.16 103.842 30.28C103.362 31.4 102.61 32.488 101.586 33.544C100.594 34.568 99.314 35.448 97.746 36.184C96.178 36.92 94.322 37.288 92.178 37.288C90.066 37.288 88.21 36.664 86.61 35.416C85.01 34.136 84.21 32.312 84.21 29.944C84.21 27.544 84.578 25.384 85.314 23.464C86.082 21.512 87.074 19.832 88.29 18.424C89.538 17.016 90.946 15.928 92.514 15.16C94.082 14.36 95.57 13.96 96.978 13.96C99.442 13.96 100.674 14.936 100.674 16.888C100.674 18.008 100.434 18.904 99.954 19.576C99.506 20.248 99.042 20.584 98.562 20.584C97.922 20.584 97.362 20.36 96.882 19.912C96.402 19.464 95.874 19.24 95.298 19.24C94.722 19.208 94.162 19.48 93.618 20.056C93.106 20.632 92.674 21.368 92.322 22.264C91.618 24.056 91.266 26.152 91.266 28.552C91.298 29.704 91.826 30.568 92.85 31.144C93.554 31.528 94.386 31.736 95.346 31.768C96.306 31.768 97.218 31.448 98.082 30.808C98.978 30.168 99.794 29.48 100.53 28.744C101.266 27.976 101.906 27.272 102.45 26.632C103.026 25.992 103.458 25.672 103.746 25.672ZM118.205 20.872C118.205 19.72 117.517 19.144 116.141 19.144C114.797 19.144 113.469 20.2 112.157 22.312C110.845 24.392 110.029 26.52 109.709 28.696C109.773 29.432 109.837 30.168 109.901 30.904C109.965 31.64 109.997 32.36 109.997 33.064C109.997 34.76 109.437 35.912 108.317 36.52C107.805 36.808 107.309 37.08 106.829 37.336C106.381 37.592 105.853 37.72 105.245 37.72C104.637 37.72 104.093 37.32 103.613 36.52C103.165 35.688 102.941 34.408 102.941 32.68C102.941 27.848 103.293 23.656 103.997 20.104C105.085 14.6 107.245 8.712 110.477 2.44C110.925 1.576 111.581 1.16 112.445 1.192C113.309 1.192 114.013 1.784 114.557 2.968C115.101 4.152 115.357 5.144 115.325 5.944C115.325 6.744 115.197 7.528 114.941 8.296C114.717 9.032 114.413 9.768 114.029 10.504C113.677 11.208 113.261 11.944 112.781 12.712C112.333 13.448 111.885 14.248 111.437 15.112L110.717 18.568C111.965 16.488 113.645 15.096 115.757 14.392C116.525 14.136 117.373 14.008 118.301 14.008C120.477 14.008 122.125 14.504 123.245 15.496C124.365 16.456 124.925 17.832 124.925 19.624C124.925 21.384 124.685 23.176 124.205 25C123.757 26.824 123.421 28.136 123.197 28.936C123.005 29.704 122.909 30.344 122.909 30.856C122.909 31.368 123.085 31.624 123.437 31.624C123.917 31.624 124.509 31.32 125.213 30.712C125.917 30.104 126.621 29.448 127.325 28.744C128.029 28.008 128.669 27.336 129.245 26.728C129.853 26.12 130.269 25.816 130.493 25.816C130.941 25.816 131.165 26.36 131.165 27.448C131.165 29.688 130.061 31.848 127.853 33.928C124.141 36.104 121.773 37.192 120.749 37.192C120.653 37.192 120.589 37.176 120.557 37.144C117.997 37.144 116.717 35.096 116.717 31C116.717 29.24 116.877 27.624 117.197 26.152C117.549 24.68 117.805 23.608 117.965 22.936C118.125 22.264 118.205 21.576 118.205 20.872ZM139.937 31.768C142.433 31.768 144.849 30.776 147.185 28.792C148.049 28.056 148.753 27.384 149.297 26.776C149.841 26.136 150.257 25.816 150.545 25.816C150.993 25.816 151.217 26.264 151.217 27.16C151.217 28.056 150.977 29.064 150.497 30.184C150.017 31.272 149.217 32.344 148.097 33.4C145.345 35.992 141.569 37.288 136.769 37.288C132.961 37.288 130.369 35.912 128.993 33.16C128.513 32.2 128.273 30.824 128.273 29.032C128.273 27.24 128.625 25.384 129.329 23.464C130.033 21.512 130.961 19.832 132.113 18.424C133.297 17.016 134.657 15.928 136.193 15.16C137.729 14.36 139.361 13.96 141.089 13.96C142.849 13.96 144.193 14.392 145.121 15.256C146.081 16.12 146.561 17.24 146.561 18.616C146.561 19.992 146.209 21.128 145.505 22.024C144.833 22.888 143.953 23.624 142.865 24.232C141.777 24.808 140.561 25.336 139.217 25.816C137.905 26.264 136.609 26.776 135.329 27.352V28.552C135.361 29.704 135.841 30.52 136.769 31C137.697 31.48 138.753 31.736 139.937 31.768ZM139.121 18.232C137.457 18.232 136.305 20.168 135.665 24.04C136.337 23.592 136.961 23.192 137.537 22.84C138.145 22.488 138.673 22.152 139.121 21.832C140.081 21.128 140.577 20.328 140.609 19.432C140.609 18.632 140.113 18.232 139.121 18.232ZM159.999 31.768C162.495 31.768 164.911 30.776 167.247 28.792C168.111 28.056 168.815 27.384 169.359 26.776C169.903 26.136 170.319 25.816 170.607 25.816C171.055 25.816 171.279 26.264 171.279 27.16C171.279 28.056 171.039 29.064 170.559 30.184C170.079 31.272 169.279 32.344 168.159 33.4C165.407 35.992 161.631 37.288 156.831 37.288C153.023 37.288 150.431 35.912 149.055 33.16C148.575 32.2 148.335 30.824 148.335 29.032C148.335 27.24 148.687 25.384 149.391 23.464C150.095 21.512 151.023 19.832 152.175 18.424C153.359 17.016 154.719 15.928 156.255 15.16C157.791 14.36 159.423 13.96 161.151 13.96C162.911 13.96 164.255 14.392 165.183 15.256C166.143 16.12 166.623 17.24 166.623 18.616C166.623 19.992 166.271 21.128 165.567 22.024C164.895 22.888 164.015 23.624 162.927 24.232C161.839 24.808 160.623 25.336 159.279 25.816C157.967 26.264 156.671 26.776 155.391 27.352V28.552C155.423 29.704 155.903 30.52 156.831 31C157.759 31.48 158.815 31.736 159.999 31.768ZM159.183 18.232C157.519 18.232 156.367 20.168 155.727 24.04C156.399 23.592 157.023 23.192 157.599 22.84C158.207 22.488 158.735 22.152 159.183 21.832C160.143 21.128 160.639 20.328 160.671 19.432C160.671 18.632 160.175 18.232 159.183 18.232ZM184.766 3.88C185.31 3.336 185.886 3.064 186.494 3.064C187.518 3.064 188.398 3.448 189.134 4.216C189.902 4.952 190.302 5.56 190.334 6.04C190.302 6.904 189.982 7.832 189.374 8.824C188.798 9.784 188.158 10.808 187.454 11.896C186.75 12.952 186.11 14.072 185.534 15.256C184.958 16.408 184.67 17.464 184.67 18.424C184.67 19.352 184.75 20.248 184.91 21.112C185.07 21.944 185.15 22.632 185.15 23.176C185.15 24.136 184.558 24.92 183.374 25.528C182.19 26.104 181.07 26.392 180.014 26.392C178.958 26.392 178.27 26.136 177.95 25.624C177.662 25.08 177.518 24.264 177.518 23.176C177.518 20.52 178.174 17.176 179.486 13.144C180.83 9.08 182.59 5.992 184.766 3.88ZM184.43 32.728C183.79 34.36 182.83 35.72 181.549 36.808C180.27 37.864 178.878 38.392 177.374 38.392C175.87 38.392 175.118 37.576 175.118 35.944C175.118 34.28 175.646 32.792 176.702 31.48C177.79 30.168 178.878 29.512 179.966 29.512C181.886 29.512 183.374 30.584 184.43 32.728Z" fill="white" />
</svg>